<svg xmlns="http://www.w3.org/2000/svg" version="1.1" xmlns:xlink="http://www.w3.org/1999/xlink" xmlns:svgjs="http://svgjs.dev/svgjs" viewBox="0 0 800 800" opacity="1"><g stroke-width="3.5" stroke="hsl(50, 98%, 50%)" fill="none"><path d="M372.5181655059067 3.637733217611242C389.5239246908516 -6.1787780636788625 410.4760753091484 -6.1787780636788625 427.4818344940933 3.640481401060697L729.5181883179764 178.02096581643082C746.5239475029213 187.83747709772098 757.0000228120697 205.9837324141708 757.0000228120697 225.61950316020057V574.3804719909408C757.0000228120697 594.0162427369706 746.5239475029213 612.1624980534204 729.5181883179764 621.98175751816L427.4818344940933 796.3622419335302C410.4760753091484 806.1787532148201 389.5239246908516 806.1787532148201 372.5181655059067 796.3594937500807L70.48181168202365 621.9790093347107C53.47605249707874 612.1624980534204 42.99997718793037 594.0162427369706 42.99997718793037 574.3804719909408V225.61950316020057C42.99997718793037 205.9837324141708 53.47605249707874 187.83747709772098 70.48181168202365 178.01821763298148L372.5181655059067 3.637733217611242Z " transform="rotate(49, 400, 400)" opacity="1.00"></path><path d="M374.48115368405615 31.949337870943168C390.2722157843622 22.834005966888043 409.7277842156378 22.834005966888043 425.51884631594385 31.95188975557477L705.9811748666923 193.87662528413273C721.7722369669983 202.99195718818788 731.500021182636 219.84205141060556 731.500021182636 238.07526710334753V561.9247381604634C731.500021182636 580.1579538532054 721.7722369669983 597.008048075623 705.9811748666923 606.1259318643098L425.51884631594385 768.0506673928678C409.7277842156378 777.1659992969229 390.2722157843622 777.1659992969229 374.48115368405615 768.0481155082363L94.0188251333077 606.1233799796782C78.22776303300168 597.008048075623 68.49997881736391 580.1579538532054 68.49997881736391 561.9247381604634V238.07526710334753C68.49997881736391 219.84205141060556 78.22776303300168 202.99195718818788 94.0188251333077 193.87407339950119L374.48115368405615 31.949337870943168Z " transform="rotate(45.5, 400, 400)" opacity="0.93"></path><path d="M376.4441418622057 60.26091200669691C391.0205068778728 51.84675947987682 408.9794931221272 51.84675947987682 423.5558581377943 60.263267592510715L682.4441614154083 209.73225423425657C697.0205264310754 218.14640676107672 706.0000195532025 233.70033988946227 706.0000195532025 250.53100052891637V549.468973812408C706.0000195532025 566.2996344518621 697.0205264310754 581.8535675802476 682.4441614154083 590.2700756928815L423.5558581377943 739.7390623346273C408.9794931221272 748.1532148614475 391.0205068778728 748.1532148614475 376.4441418622057 739.7367067488136L117.5558385845917 590.2677201070678C102.97947356892467 581.8535675802476 93.99998044679745 566.2996344518621 93.99998044679745 549.468973812408V250.53100052891637C93.99998044679745 233.70033988946227 102.97947356892467 218.14640676107672 117.5558385845917 209.72989864844283L376.4441418622057 60.26091200669691Z " transform="rotate(42, 400, 400)" opacity="0.85"></path><path d="M378.40713004035524 88.57251666002884C391.7687979713834 80.85954351044373 408.2312020286166 80.85954351044373 421.59286995964476 88.57467594702479L658.9071479641243 225.58791370195854C672.2688158951524 233.30088685154362 680.5000179237691 247.55865888589705 680.5000179237691 262.9867644720633V537.0132399819307C680.5000179237691 552.441345568097 672.2688158951524 566.6991176024503 658.9071479641243 574.4142500390315L421.59286995964476 711.4274877939652C408.2312020286166 719.1404609435502 391.7687979713834 719.1404609435502 378.40713004035524 711.4253285069692L141.09285203587575 574.4120907520355C127.73118410484761 566.6991176024503 119.49998207623099 552.441345568097 119.49998207623099 537.0132399819307V262.9867644720633C119.49998207623099 247.55865888589705 127.73118410484761 233.30088685154362 141.09285203587575 225.5857544149626L378.40713004035524 88.57251666002884Z " transform="rotate(38.5, 400, 400)" opacity="0.78"></path><path d="M380.37013347729385 116.88409079578258C392.51710432368304 109.87229702343251 407.4829261938951 109.87229702343251 419.6298970402843 116.88605378396073L635.3701497716293 241.44354265208233C647.5171206180186 248.4553364244324 655.0000315531245 261.4169473647537 655.0000315531245 275.44249789763217V524.5574756338752C655.0000315531245 538.5830261667536 647.5171206180186 551.544637107075 635.3701497716293 558.5583938676032L419.6298970402843 683.1158827357247C407.4829261938951 690.1276765080747 392.51710432368304 690.1276765080747 380.37013347729385 683.1139197475466L164.6298807459488 558.556430879425C152.48290989955962 551.544637107075 144.9999989644536 538.5830261667536 144.9999989644536 524.5574756338752V275.44249789763217C144.9999989644536 261.4169473647537 152.48290989955962 248.4553364244324 164.6298807459488 241.44157966390418L380.37013347729385 116.88409079578258Z " transform="rotate(35, 400, 400)" opacity="0.71"></path><path d="M382.33310639665433 145.1956954491145C393.2653801584046 138.88508105399941 406.7346198415954 138.88508105399941 417.66689360334567 145.19746213847486L611.8331210615563 257.29920211978424C622.7653948233065 263.6098165148993 629.500014664902 275.2752663611885 629.500014664902 287.89826184077907V512.1017418033979C629.500014664902 524.7247372829884 622.7653948233065 536.3901871292776 611.8331210615563 542.702568213753L417.66689360334567 654.8043081950624C406.7346198415954 661.1149225901775 393.2653801584046 661.1149225901775 382.33310639665433 654.802541505702L188.1668789384438 542.7008015243927C177.2346051766935 536.3901871292776 170.49998533509807 524.7247372829884 170.49998533509807 512.1017418033979V287.89826184077907C170.49998533509807 275.2752663611885 177.2346051766935 263.6098165148993 188.1668789384438 257.29743543042395L382.33310639665433 145.1956954491145Z " transform="rotate(31.5, 400, 400)" opacity="0.63"></path><path d="M384.2960945748038 173.50730010244638C394.0136712519152 167.89786508456632 405.9863287480848 167.89786508456632 415.7039054251962 173.50887049298893L588.2961076102722 273.15486158748615C598.0136842873835 278.7642966053662 604.0000130354683 289.13358535762325 604.0000130354683 300.354025783926V499.6460079729204C604.0000130354683 510.86644839922315 598.0136842873835 521.2357371514802 588.2961076102722 526.8467425599029L415.7039054251962 626.4927336544C405.9863287480848 632.1021686722801 394.0136712519152 632.1021686722801 384.2960945748038 626.4911632638575L211.7038923897278 526.8451721693602C201.98631571261643 521.2357371514802 195.99998696453162 510.86644839922315 195.99998696453162 499.6460079729204V300.354025783926C195.99998696453162 289.13358535762325 201.98631571261643 278.7642966053662 211.7038923897278 273.15329119694366L384.2960945748038 173.50730010244638Z " transform="rotate(28, 400, 400)" opacity="0.56"></path><path d="M386.25908275295336 201.81887423820018C394.7619623454258 196.9106185975551 405.2380376545742 196.9106185975551 413.74091724704664 201.82024832992488L564.7590941589882 289.01049053760994C573.2619737514606 293.918746178255 578.5000114060349 302.99187383647995 578.5000114060349 312.8097592094948V487.19024362486493C578.5000114060349 497.0081289978798 573.2619737514606 506.08125665610476 564.7590941589882 510.99088638847456L413.74091724704664 598.1811285961596C405.2380376545742 603.0893842368046 394.7619623454258 603.0893842368046 386.25908275295336 598.1797545044349L235.24090584101185 510.9895122967498C226.73802624853937 506.08125665610476 221.49998859396516 497.0081289978798 221.49998859396516 487.19024362486493V312.8097592094948C221.49998859396516 302.99187383647995 226.73802624853937 293.918746178255 235.24090584101185 289.0091164458853L386.25908275295336 201.81887423820018Z " transform="rotate(24.5, 400, 400)" opacity="0.49"></path><path d="M388.22207093110285 230.13047889153205C395.5102534389364 225.923402628122 404.4897465610636 225.923402628122 411.77792906889715 230.13165668443895L541.2220807077042 304.86615000531185C548.5102632155376 309.07322626872195 553.0000097766012 316.85019283291473 553.0000097766012 325.2655231526418V474.7345097943876C553.0000097766012 483.1498401141146 548.5102632155376 490.92680667830746 541.2220807077042 495.1350607346244L411.77792906889715 569.8695540554972C404.4897465610636 574.0766303189073 395.5102534389364 574.0766303189073 388.22207093110285 569.8683762625903L258.77791929229585 495.1338829417175C251.4897367844623 490.92680667830746 246.99999022339875 483.1498401141146 246.99999022339875 474.7345097943876V325.2655231526418C246.99999022339875 316.85019283291473 251.4897367844623 309.07322626872195 258.77791929229585 304.864972212405L388.22207093110285 230.13047889153205Z " transform="rotate(21, 400, 400)" opacity="0.42"></path><path d="M390.1850591092524 258.4420377684968C396.258544532447 254.93614088232172 403.741455467553 254.93614088232172 409.8149408907476 258.44301926258584L517.6850672564201 320.72176369664663C523.7585526796147 324.22766058282167 527.5000081471677 330.7084660529823 527.5000081471677 337.72124131942155V462.2787301875431C527.5000081471677 469.29150545398227 523.7585526796147 475.77231092414297 517.6850672564201 479.27918930440705L409.8149408907476 541.5579337384678C403.741455467553 545.0638306246428 396.258544532447 545.0638306246428 390.1850591092524 541.5569522443787L282.3149327435799 479.27820781031795C276.24144732038525 475.77231092414297 272.4999918528323 469.29150545398227 272.4999918528323 462.2787301875431V337.72124131942155C272.4999918528323 330.7084660529823 276.24144732038525 324.22766058282167 282.3149327435799 320.72078220255753L390.1850591092524 258.4420377684968Z " transform="rotate(17.5, 400, 400)" opacity="0.34"></path><path d="M392.14804728740194 286.7536500512232C397.0068356259576 283.94893254228316 402.9931643740424 283.94893254228316 407.85195271259806 286.7544352464945L494.1480538051361 336.5774307937431C499.00684214369176 339.3821483026831 502.00000651773416 344.5667926788116 502.00000651773416 350.177012891963V449.8230039864602C502.00000651773416 455.4332241996116 499.00684214369176 460.6178685757401 494.1480538051361 463.4233712799514L407.85195271259806 513.2463668272001C402.9931643740424 516.0510843361401 397.0068356259576 516.0510843361401 392.14804728740194 513.2455816319288L305.8519461948639 463.4225860846801C300.99315785630824 460.6178685757401 297.99999348226584 455.4332241996116 297.99999348226584 449.8230039864602V350.177012891963C297.99999348226584 344.5667926788116 300.99315785630824 339.3821483026831 305.8519461948639 336.5766455984718L392.14804728740194 286.7536500512232Z " transform="rotate(14, 400, 400)" opacity="0.27"></path><path d="M394.1110354655514 315.06522418697693C397.7551267194682 312.9616860552719 402.2448732805318 312.9616860552719 405.8889645344486 315.0658130834304L470.6110403538521 352.43305974386686C474.2551316077688 354.5365978755719 476.5000048883006 358.4250811576683 476.5000048883006 362.6327463175318V437.3672396384047C476.5000048883006 441.5749047982682 474.2551316077688 445.46338808036467 470.6110403538521 447.56751510852314L405.8889645344486 484.93476176895956C402.2448732805318 487.0382999006646 397.7551267194682 487.0382999006646 394.1110354655514 484.9341728725061L329.38895964614795 447.5669262120697C325.7448683922312 445.46338808036467 323.4999951116994 441.5749047982682 323.4999951116994 437.3672396384047V362.6327463175318C323.4999951116994 358.4250811576683 325.7448683922312 354.5365978755719 329.38895964614795 352.43247084741347L394.1110354655514 315.06522418697693Z " transform="rotate(10.5, 400, 400)" opacity="0.20"></path><path d="M396.07402364370097 343.3768364697034C398.5034178129788 341.9744777152334 401.4965821870212 341.9744777152334 403.92597635629903 343.37722906733904L447.07402690256805 368.28872684096336C449.5034210718459 369.6910855954334 451.0000032588671 372.28340778349764 451.0000032588671 375.0885178900733V424.9115134373219C451.0000032588671 427.7166235438976 449.5034210718459 430.30894573196184 447.07402690256805 431.7116970840675L403.92597635629903 456.62319485769183C401.4965821870212 458.02555361216184 398.5034178129788 458.02555361216184 396.07402364370097 456.6228022600562L352.92597309743195 431.71130448643186C350.4965789281541 430.30894573196184 348.9999967411329 427.7166235438976 348.9999967411329 424.9115134373219V375.0885178900733C348.9999967411329 372.28340778349764 350.4965789281541 369.6910855954334 352.92597309743195 368.2883342433277L396.07402364370097 343.3768364697034Z " transform="rotate(7, 400, 400)" opacity="0.12"></path><path d="M398.03701182185046 371.6884182348517C399.2517089064894 370.9872388576167 400.7482910935106 370.9872388576167 401.96298817814954 371.6886145336695L423.537013451284 384.1443634204817C424.75171053592294 384.8455427977167 425.50000162943354 386.1417038917488 425.50000162943354 387.54425894503663V412.45575671866095C425.50000162943354 413.8583117719488 424.75171053592294 415.15447286598095 423.537013451284 415.85584854203375L401.96298817814954 428.3115974288459C400.7482910935106 429.0127768060809 399.2517089064894 429.0127768060809 398.03701182185046 428.3114011300281L376.462986548716 415.85565224321596C375.24828946407706 415.15447286598095 374.49999837056646 413.8583117719488 374.49999837056646 412.45575671866095V387.54425894503663C374.49999837056646 386.1417038917488 375.24828946407706 384.8455427977167 376.462986548716 384.1441671216639L398.03701182185046 371.6884182348517Z " transform="rotate(3.5, 400, 400)" opacity="0.05"></path></g></svg>